<?xml version="1.0" encoding="UTF-8"?>
<svg id="Layer_1" data-name="Layer 1" xmlns="http://www.w3.org/2000/svg" version="1.1" viewBox="0 0 24 30">
  <defs>
    <style>
      .cls-1 {
        fill: #fff;
        stroke-width: 0px;
      }
    </style>
  </defs>
  <path class="cls-1" d="M15.8,19.6c1.8-2.5,3.4-6,3.4-8.1,0-4-3.2-7.2-7.2-7.2s-7.2,3.2-7.2,7.2,1.6,5.6,3.4,8.1c-2.2.5-3.9,1.5-3.9,2.9,0,2.1,3.9,3.2,7.8,3.2s7.8-1.1,7.8-3.2-1.7-2.4-3.9-2.9ZM12,9c1.4,0,2.5,1.1,2.5,2.5s-1.1,2.5-2.5,2.5-2.5-1.1-2.5-2.5c0-1.4,1.1-2.5,2.5-2.5h0ZM12,24.2c-4.1,0-6.2-1.2-6.2-1.8s1.2-1.2,3.5-1.5c.7.9,1.7,1.6,2.8,1.8,1.1-.2,2.1-.9,2.8-1.8,2.3.4,3.5,1.1,3.5,1.5s-2.1,1.8-6.2,1.8Z"/>
</svg>