<svg id="Layer_1" data-name="Layer 1" xmlns="http://www.w3.org/2000/svg" version="1.1" viewBox="0 0 90 112.5">
  <defs>
    <style>
      .cls-1 {
        fill: #112b5b;
        stroke-width: 0px;
      }
    </style>
  </defs>
  <path class="cls-1" d="M45,12.4C20.8,12.4,1.1,32,1.1,56.3s19.6,43.9,43.9,43.9,43.9-19.6,43.9-43.9c0-24.2-19.7-43.9-43.9-43.9ZM45,94.7c-21.2,0-38.4-17.2-38.4-38.4S23.8,17.9,45,17.9s38.4,17.2,38.4,38.4c0,21.2-17.2,38.4-38.4,38.4ZM67.4,37.8c1.1,1.1,1,2.8,0,3.9h0s-27.1,26.4-27.1,26.4c-1.1,1-2.7,1-3.8,0l-12.7-12c-1.1-1-1.2-2.8-.2-3.9,1-1.1,2.8-1.2,3.9-.2,0,0,0,0,0,0l10.8,10.2,25.2-24.6c1.1-1.1,2.8-1,3.9,0Z"/>
</svg>