<?xml version="1.0" encoding="UTF-8"?>
<svg id="Layer_1" data-name="Layer 1" xmlns="http://www.w3.org/2000/svg" version="1.1" viewBox="0 0 100 125">
  <defs>
    <style>
      .cls-1 {
        fill: #fff;
        stroke-width: 0px;
      }
    </style>
  </defs>
  <path class="cls-1" d="M63.9,23.9h-18.2c-5.3,0-9.7,4.3-9.7,9.7v47.7c0,5.3,4.3,9.7,9.7,9.7h18.2v-2.4h-12.6v-2.6h12.6v-2.4h-12.6v-2.6h12.6v-2.4h-12.6v-2.6h12.6v-2.4h-12.6v-2.6h12.6v-2.4h-12.6v-2.6h12.6v-2.4h-12.6v-2.6h12.6v-2.4h-12.6v-2.6h12.6v-2.4h-12.6v-2.6h12.6v-2.4h-12.6v-2.6h12.6v-2.4h-12.6v-2.6h12.6v-2.4h-12.6v-2.6h12.6v-2.4h-12.6v-2.6h12.6v-2.4h-12.6v-2.6h12.6v-2.1ZM48.9,88.5h-3.1c-4,0-7.3-3.3-7.3-7.3v-47.7c0-4,3.3-7.3,7.3-7.3h3.1v62.3Z"/>
</svg>