<?xml version="1.0" encoding="UTF-8"?>
<svg id="Layer_1" data-name="Layer 1" xmlns="http://www.w3.org/2000/svg" version="1.1" viewBox="0 0 64 80">
  <defs>
    <style>
      .cls-1 {
        fill: #fff;
        stroke-width: 0px;
      }
    </style>
  </defs>
  <path class="cls-1" d="M40,14v-3c0-.5-.5-1-1-1s-1,.5-1,1v3h-2v-3c0-.5-.5-1-1-1s-1,.5-1,1v3h-2v-3c0-.5-.5-1-1-1s-1,.5-1,1v3h-2v-3c0-.5-.5-1-1-1s-1,.5-1,1v3h-2v-3c0-.5-.5-1-1-1s-1,.5-1,1v3c-1.1,0-2,.9-2,2v3c0,7.9.6,14,1.7,17.6.9,2.8,1.3,5.9,1.3,9.2v2.2c0,3.3,2.1,6.2,5,7.4v1.6c0,1.3.8,2.4,2,2.8v7.2c0,.5.5,1,1,1s1-.5,1-1v-7.2c1.2-.4,2-1.5,2-2.8v-1.6c2.9-1.2,5-4.1,5-7.4v-2.2c0-3.3.4-6.4,1.3-9.2,1.1-3.6,1.7-9.7,1.7-17.6v-3c0-1.1-.9-2-2-2ZM22,16h18v2h-18v-2ZM39.8,20c-1.2,4.5-5.2,6.5-8.8,6.5s-7.5-2-8.8-6.5h17.5ZM32,57c0,.5-.5,1-1,1s-1-.5-1-1v-1.1c.3,0,.7,0,1,0s.7,0,1,0v1.1ZM38.4,36c-.9,3-1.4,6.3-1.4,9.8v2.2c0,3.3-2.7,6-6,6s-6-2.7-6-6v-2.2c0-3.5-.5-6.8-1.4-9.8-.6-1.9-1.3-5.5-1.5-11.8,2.2,3,5.7,4.3,8.9,4.3s6.7-1.4,8.9-4.3c-.2,6.3-.9,9.9-1.5,11.8Z"/>
  <path class="cls-1" d="M32,33c-1.6,0-3,1.3-3,3v4c0,1.7,1.4,3,3,3s3-1.3,3-3v-4c0-1.7-1.3-3-3-3ZM31,36c0-.5.5-1,1-1s1,.5,1,1v1h-2v-1ZM32,41c-.5,0-1-.5-1-1v-1h2v1c0,.5-.5,1-1,1Z"/>
</svg>