<?xml version="1.0" encoding="UTF-8"?>
<svg id="Layer_1" data-name="Layer 1" xmlns="http://www.w3.org/2000/svg" version="1.1" viewBox="0 0 110 135">
  <defs>
    <style>
      .cls-1 {
        fill: #9b1c31;
        stroke-width: 0px;
      }
    </style>
  </defs>
  <path class="cls-1" d="M86.9,68.2c-2.3-2.3-5.6-3.5-8.9-3.1s-6.2,2.2-8,5l-.9,1.4c-1.5,2.4-4.6,3.3-7.3,2.2-9.7-3.8-16.4-10.7-20.5-21-1-2.5,0-5.3,2.4-6.9l1.3-.8c2.8-1.8,4.6-4.7,5-8,.3-3.3-.8-6.5-3.2-8.9l-7.2-7.2c-3.8-3.8-9.7-4.3-14.1-1.2l-6.2,4.4c-5.9,4.2-8.2,11.8-5.7,18.4,10.8,28.4,30.6,48.2,58.8,58.8,1.8.7,3.6,1,5.4,1,5,0,9.8-2.4,12.9-6.7l4.4-6.2c3.1-4.4,2.6-10.3-1.2-14.1l-7.3-7.3Z"/>
</svg>