<?xml version="1.0" encoding="UTF-8"?>
<svg id="Layer_1" data-name="Layer 1" xmlns="http://www.w3.org/2000/svg" version="1.1" viewBox="0 0 24 30">
  <defs>
    <style>
      .cls-1 {
        fill: #9b1c31;
        stroke-width: 0px;
      }
    </style>
  </defs>
  <path class="cls-1" d="M21.3,4c.4,0,.7.3.7.7s-.1.5-.5.7c-1.8.9-3.9,4.2-3.9,6.2,3,0,4.3,2.6,4.3,4.3s-1.7,4.1-4.3,4.1-4.8-2.5-4.8-5.3c0-6,6.8-10.7,8.5-10.7ZM10.5,4c.4,0,.7.3.7.7s-.1.5-.5.7c-1.8.9-3.9,4.2-3.9,6.2,3,0,4.3,2.6,4.3,4.3s-1.7,4.1-4.3,4.1-4.8-2.5-4.8-5.3c0-6,6.8-10.7,8.5-10.7Z"/>
</svg>