<?xml version="1.0" encoding="UTF-8"?>
<svg id="Layer_1" data-name="Layer 1" xmlns="http://www.w3.org/2000/svg" version="1.1" viewBox="0 0 110 135">
  <defs>
    <style>
      .cls-1 {
        fill: #fcfcfc;
        stroke-width: 0px;
      }
    </style>
  </defs>
  <path class="cls-1" d="M90.5,34.8l-23.8,13.4-.4,8.2c12.3-7,20.4-14.3,24.2-21.7h0Z"/>
  <path class="cls-1" d="M59.2,78.6c0,.5-.4.9-.8,1.1-2.6,1.3-4.4,3.5-5.3,6.2-.9,2.7-.7,5.6.6,8.2,1.3,2.5,3.5,4.4,6.2,5.3,3.8,1.2,8,.2,10.9-2.6,1.2-1.2,2.1-2.6,2.6-4.2.9-2.7.7-5.6-.6-8.1-1.3-2.6-3.5-4.4-6.2-5.3-.4-.1-.9-.2-1.3-.3-.8-.1-1.3-.8-1.3-1.6l2.4-57.2c-5.1,6.9-7.9,17.9-8.4,32.7-.1,2.9-.1,6,0,9.2,2.3,3.4,2.7,8.6,1.3,16.7h0ZM64.5,83h.1c.2,0,.4.1.6.2,3.4,1.1,5.2,4.7,4.1,8.1-.3,1-.8,1.8-1.6,2.6-1.7,1.7-4.2,2.3-6.6,1.6-1.6-.5-3-1.7-3.7-3.2-.8-1.5-.9-3.3-.4-4.9,0-.2.1-.4.2-.7,1.1-2.6,3.8-4.1,6.6-3.8.2,0,.4,0,.5.1h0ZM59.5,53.7c1-1,2.7-1,3.7,0,1,1,1,2.7,0,3.7-1,1-2.7,1-3.7,0-1-1-1-2.7,0-3.7Z"/>
  <path class="cls-1" d="M62.5,56.7c.6-.6.6-1.6,0-2.2-.6-.6-1.6-.6-2.2,0-.6.6-.6,1.6,0,2.2.6.6,1.6.6,2.2,0Z"/>
  <path class="cls-1" d="M37.7,76.6c2-2,3.1-4.7,3.1-7.6s.2-1,.6-1.3c6.4-4.7,11-6.7,14.9-6.5,0-2.5,0-5,0-7.3l-15.8,8.9c-.7.4-1.5.2-2-.4-.3-.4-.6-.7-.9-1-4.2-4.2-10.9-4.2-15.1,0-4.2,4.2-4.2,10.9,0,15.1s10.9,4.2,15.1,0h0ZM25.6,64.5c2.5-2.5,6.6-2.5,9.1,0,2.5,2.5,2.5,6.6,0,9.1-2.5,2.5-6.6,2.5-9.1,0-2.5-2.5-2.5-6.6,0-9.1Z"/>
</svg>