<?xml version="1.0" encoding="UTF-8"?>
<svg id="Layer_1" data-name="Layer 1" xmlns="http://www.w3.org/2000/svg" version="1.1" viewBox="0 0 6.8 8.5">
  <defs>
    <style>
      .cls-1 {
        fill: none;
      }

      .cls-1, .cls-2, .cls-3 {
        stroke-width: 0px;
      }

      .cls-2 {
        fill-rule: evenodd;
      }

      .cls-2, .cls-3 {
        fill: #fff;
      }
    </style>
  </defs>
  <g>
    <path class="cls-2" d="M5.6,2.7l-2,1.4-.5.3-.6.4s0,0,0-.1c0,0,0-.1,0-.2,0-.1-.1-.2-.2-.3-.1,0-.2,0-.4,0,0,0-.1,0-.2,0-.2,0-.3.2-.4.4-.1.2-.1.4-.1.6,0,0,0,.1,0,.2,0,.1.1.2.2.3.1,0,.2,0,.4,0,0,0,.1,0,.2,0,0,0,0,0,0,0h0c0,.1.2.1.2,0,0,0,0,0,0-.1,0,0,0-.1.1-.2,0,0,0-.1,0-.2,1-.3,3.1-1.1,3.2-2.3,0,0,0,0,0,0ZM2.2,5.2c0-.1.1-.3,0-.4,0,0,0,0,0-.1,0,0,0-.1-.1-.2,0,0-.1,0-.2,0,0,0,0,0-.1,0-.1,0-.3.2-.3.3,0,.1-.1.3,0,.4,0,0,0,0,0,.1,0,0,0,.1.1.2,0,0,.1,0,.2,0,0,0,0,0,.1,0,.1,0,.3-.2.3-.3ZM5,3.5s-.2.5-.8.6c0,0,0,0,0,0s0,0,0,0c.6,0,.7-.5.7-.5,0,0,0,0,0,0s0,0,0,0ZM3.4,4.5s0,0,0,0c0,0,0,0,0,0,0,0,0,0,0,0,0,0,0,0,0,0Z"/>
    <path class="cls-3" d="M3.7,5.4c0,0,.1,0,.2,0,.1,0,.3,0,.4,0,.1,0,.2.2.2.3,0,0,0,.1,0,.2,0,.2,0,.4-.1.6-.1.2-.3.3-.4.4,0,0-.1,0-.2,0-.1,0-.3,0-.4,0-.1,0-.2-.2-.2-.3,0,0,0-.1,0-.2,0-.2,0-.4.1-.6,0,0,0-.1.1-.2,0-.2,0-.4-.1-.8h.1s.2-.1.2-.1c0,0,0,0,.1,0v.8s0,0,0,0ZM3.9,5.5s0,0-.1,0c-.1,0-.3.2-.3.3,0,.1-.1.3,0,.4,0,0,0,0,0,.1,0,0,0,.1.1.2,0,0,.1,0,.2,0,0,0,0,0,.1,0,.1,0,.3-.2.3-.3,0-.1.1-.3,0-.4,0,0,0,0,0-.1,0,0,0-.1-.1-.2,0,0-.1,0-.2,0Z"/>
    <path class="cls-2" d="M3.2,2.9c0,.5,0,1,0,1.5l.5-.3.2-2.4s0,0,0,0c0,0,0,0-.1,0-.3.3-.4.7-.5,1.1ZM3.5,3.6s0,0,0,0c-.3-.6,0-1,0-1,0,0,0,0,0,0,0,0,0,0,0,0,0,0-.3.4,0,.9,0,0,0,0,0,0Z"/>
  </g>
  <rect class="cls-1" x="0" y=".9" width="6.8" height="6.8"/>
</svg>