<?xml version="1.0" encoding="UTF-8"?>
<svg id="Layer_1" data-name="Layer 1" xmlns="http://www.w3.org/2000/svg" version="1.1" viewBox="0 0 100 125">
  <defs>
    <style>
      .cls-1 {
        fill: #fff;
        stroke-width: 0px;
      }
    </style>
  </defs>
  <path class="cls-1" d="M48,85.2c3.4,0,6.8-.7,9.9-2.2l8.8,12.5c1.3,1.8,3.8,2.2,5.6,1,1.8-1.3,2.2-3.8,1-5.6l-8.7-12.3c9.6-9.2,9.9-24.4.8-33.9s-24.4-10-34-.9-9.9,24.4-.8,33.9c4.6,4.8,10.8,7.5,17.4,7.5ZM48,45.2c8.8,0,16,7.2,16,16s-7.2,16-16,16-16-7.2-16-16,7.2-16,16-16Z"/>
</svg>