<?xml version="1.0" encoding="utf-8"?>
<!-- Generator: Adobe Illustrator 24.1.0, SVG Export Plug-In . SVG Version: 6.00 Build 0)  -->
<svg version="1.1" id="Layer_1" xmlns="http://www.w3.org/2000/svg" xmlns:xlink="http://www.w3.org/1999/xlink" x="0px" y="0px"
	 viewBox="0 0 100 125" style="enable-background:new 0 0 100 125;" xml:space="preserve">
<path d="M48,85.2c3.4,0,6.8-0.7,9.9-2.2l8.8,12.5c1.3,1.8,3.8,2.2,5.6,1c1.8-1.3,2.2-3.8,1-5.6l-8.7-12.3c9.6-9.2,9.9-24.4,0.8-33.9
	S41,34.7,31.4,43.8s-9.9,24.4-0.8,33.9C35.2,82.5,41.4,85.2,48,85.2z M48,45.2c8.8,0,16,7.2,16,16s-7.2,16-16,16s-16-7.2-16-16
	S39.2,45.2,48,45.2z"/>
</svg>
